<svg width="106" height="40" xmlns="http://www.w3.org/2000/svg" xmlns:xlink="http://www.w3.org/1999/xlink"><defs><path id="a" d="M0 0h17.572v22.41H0z"/><path id="c" d="M0 0h8.724v10.76H0z"/><path id="e" d="M0 0h16.149v16.149H0z"/><path id="g" d="M0 0h16.149v16.148H0z"/></defs><g fill="none" fill-rule="evenodd"><path d="M58.323 15.678c0-1.56-1.201-2.793-2.794-2.793h-5.812v5.617h5.812c1.593 0 2.794-1.232 2.794-2.824Zm-8.606-11.53v4.936h5.066a2.44 2.44 0 0 0 2.436-2.469c0-1.396-1.04-2.467-2.436-2.467h-5.066Zm13.218 12.31c0 3.538-2.695 6.072-6.3 6.072H45.363V.12h10.524c3.345 0 5.944 2.403 5.944 5.717 0 2.11-1.105 3.961-2.599 4.806 2.177.78 3.703 3.15 3.703 5.814ZM84.836.12v22.41H80.29L70.09 7.817V22.53h-4.483V.12h4.546l10.199 14.714V.12z" fill="#FCD535"/><g transform="translate(87.461 .12)"><mask id="b" fill="#fff"><use xlink:href="#a"/></mask><path d="M12.96 15.558c0-1.56-1.202-2.793-2.794-2.793H4.35v5.618h5.816c1.592 0 2.793-1.232 2.793-2.825ZM4.35 4.028v4.937h5.068a2.44 2.44 0 0 0 2.436-2.47c0-1.395-1.04-2.467-2.436-2.467H4.35Zm13.222 12.31c0 3.54-2.699 6.072-6.303 6.072H0V0h10.523c3.346 0 5.943 2.403 5.943 5.717 0 2.11-1.102 3.962-2.597 4.807 2.177.78 3.703 3.15 3.703 5.814Z" fill="#FCD535" mask="url(#b)"/></g><path d="M57.289 27.394v12.59h-2.82l-6.326-9.126v7.816a1.31 1.31 0 0 1-1.311 1.31h-.159a1.31 1.31 0 0 1-1.31-1.31v-12.59h2.82l6.325 9.126v-7.816c0-.723.587-1.31 1.31-1.31h.16c.724 0 1.31.587 1.31 1.31M67.243 34.605c0-1.612-1.188-2.842-2.82-2.842-1.612 0-2.821 1.23-2.821 2.842 0 1.61 1.21 2.84 2.822 2.84 1.631 0 2.82-1.23 2.82-2.84m-8.34 0c0-3.062 2.376-5.38 5.52-5.38 3.143 0 5.52 2.318 5.52 5.38 0 3.06-2.377 5.38-5.52 5.38-3.144 0-5.52-2.32-5.52-5.38M79.95 34.605c0-1.612-1.21-2.842-2.841-2.842-1.61 0-2.82 1.23-2.82 2.842 0 1.61 1.21 2.84 2.82 2.84 1.632 0 2.841-1.23 2.841-2.84m2.62-7.21V40h-2.62v-1.487a4.436 4.436 0 0 1-3.344 1.471c-2.861 0-5.018-2.319-5.018-5.38s2.157-5.38 5.018-5.38c1.369 0 2.517.565 3.344 1.471v-3.3a1.31 1.31 0 1 1 2.62 0M87.006 33.638h5.238c-.321-1.29-1.35-2.115-2.618-2.115-1.289 0-2.297.845-2.62 2.115m7.977 1.913h-7.957c.362 1.29 1.452 2.115 2.94 2.115 1.25 0 2.278-.584 2.823-1.268l1.752 1.53c-1.068 1.27-2.72 2.056-4.654 2.056-3.263 0-5.7-2.338-5.7-5.42 0-3.041 2.357-5.339 5.46-5.339 3.08 0 5.397 2.298 5.397 5.4 0 .281-.02.644-.06.926" fill="#FCD535"/><g transform="translate(96.31 29.225)"><mask id="d" fill="#fff"><use xlink:href="#c"/></mask><path d="m0 9.188 1.27-1.734c.785.685 1.773 1.149 3.001 1.149 1.049 0 1.813-.343 1.813-.967 0-.686-.885-.928-2.014-1.19C2.44 6.085.323 5.58.323 3.245.323 1.068 2.237 0 4.513 0c1.753 0 3.062.625 3.99 1.35l-1.27 1.752c-.745-.564-1.611-.946-2.66-.946-.885 0-1.61.282-1.61.886 0 .685.866.908 2.014 1.149 1.632.362 3.747.867 3.747 3.203 0 2.175-1.935 3.365-4.392 3.365-1.914 0-3.345-.725-4.332-1.571" fill="#FCD535" mask="url(#d)"/></g><path fill="#FCD535" d="M22.236 5.905V0h16.149v16.149H32.48V5.905zM22.236 39.442v-5.905H32.48V23.294h5.905v16.148z"/><path d="M22.783 19.72c0-4.852.976-9.426 2.75-12.877C27.804 2.43 31.318 0 35.433 0v5.905c-4.38 0-6.744 7.118-6.744 13.816 0 6.697 2.363 13.816 6.744 13.816v5.905c-8.692 0-12.65-10.223-12.65-19.721" fill="#FCD535"/><g transform="translate(0 23.293)"><mask id="f" fill="#fff"><use xlink:href="#e"/></mask><path fill="#FCD535" mask="url(#f)" d="M16.149 10.244v5.905H-.001V0h5.906v10.244z"/></g><g><mask id="h" fill="#fff"><use xlink:href="#g"/></mask><path fill="#FCD535" mask="url(#h)" d="M16.149 0v5.905H5.905v10.243H0V0z"/></g><path d="M15.602 19.72c0 4.854-.977 9.428-2.751 12.878-2.269 4.413-5.783 6.844-9.898 6.844v-5.905c4.38 0 6.743-7.119 6.743-13.816 0-6.698-2.363-13.816-6.743-13.816V0c8.691 0 12.649 10.223 12.649 19.72" fill="#FCD535"/></g></svg>